<?xml version="1.0" standalone="no"?>
<!DOCTYPE svg PUBLIC "-//W3C//DTD SVG 20010904//EN"
 "http://www.w3.org/TR/2001/REC-SVG-20010904/DTD/svg10.dtd">
<svg version="1.0" xmlns="http://www.w3.org/2000/svg"
 width="1486.000000pt" height="1486.000000pt" viewBox="0 0 1486.000000 1486.000000"
 preserveAspectRatio="xMidYMid meet">
<metadata>
Created by potrace 1.14, written by Peter Selinger 2001-2017
</metadata>
<g transform="translate(0.000000,1486.000000) scale(0.100000,-0.100000)"
fill="#000000" stroke="none">
<path d="M0 13077 c0 -1771 0 -1782 20 -1795 25 -15 25 -33 0 -65 -19 -24 -20
-40 -20 -475 l0 -450 24 -16 c28 -18 25 -50 -5 -69 -18 -11 -19 -35 -19 -504
0 -437 2 -493 15 -493 9 0 26 -7 38 -15 17 -11 85 -17 287 -25 235 -9 412 -22
477 -36 26 -5 36 -32 27 -69 -7 -27 -7 -27 -74 -21 -36 4 -91 14 -121 22 -33
10 -109 17 -199 19 -80 2 -214 6 -297 10 l-153 7 0 -4551 0 -4551 7430 0 7430
0 0 4484 0 4483 -44 5 c-52 6 -490 -7 -503 -15 -4 -3 -166 -8 -358 -12 -309
-6 -451 -12 -759 -32 -66 -4 -82 -2 -91 11 -7 8 -23 17 -36 19 -34 6 -35 32
-2 45 55 22 232 33 518 33 160 0 295 3 300 7 6 4 18 19 28 35 22 34 49 34 94
0 36 -28 38 -28 170 -25 78 2 139 -1 146 -6 25 -20 92 -18 84 2 -11 28 53 39
256 44 l197 4 0 344 0 344 -23 0 c-13 0 -28 -5 -35 -12 -7 -7 -12 -9 -12 -5 0
4 -14 0 -30 -8 -17 -9 -83 -22 -148 -31 -152 -19 -445 -43 -454 -38 -4 3 -23
-2 -42 -10 -37 -16 -144 -30 -351 -46 -71 -6 -166 -15 -210 -20 -44 -5 -134
-9 -200 -10 -68 0 -179 -9 -255 -21 -85 -13 -227 -24 -385 -29 -137 -5 -270
-12 -295 -15 -91 -10 -451 -27 -650 -30 -123 -2 -221 -8 -245 -15 -25 -8 -132
-14 -285 -16 -135 -2 -251 -4 -258 -4 -20 0 -38 -48 -24 -62 7 -7 12 -19 12
-28 0 -9 9 -25 19 -34 10 -9 22 -37 26 -61 3 -25 13 -51 21 -60 9 -8 15 -33
15 -57 0 -24 2 -78 5 -121 5 -66 9 -79 27 -90 16 -9 87 -11 266 -10 220 2 244
4 256 20 7 10 11 21 8 26 -8 13 18 37 40 37 30 0 46 -30 47 -86 0 -63 0 -63
-137 -74 -96 -8 -140 -20 -154 -42 -3 -5 -19 2 -34 16 -26 24 -34 26 -126 26
-144 0 -175 -21 -124 -82 14 -16 25 -40 25 -52 0 -13 9 -49 20 -81 11 -32 20
-68 20 -79 0 -12 9 -46 19 -76 10 -30 22 -86 26 -125 4 -38 17 -104 30 -145
38 -126 44 -153 51 -221 4 -45 3 -69 -5 -73 -17 -11 -13 -41 10 -86 13 -24 27
-39 34 -36 21 8 43 -16 47 -52 4 -29 0 -35 -31 -55 -20 -12 -43 -22 -51 -22
-9 0 -13 -6 -11 -15 3 -8 6 -67 9 -131 3 -98 1 -122 -14 -150 -23 -45 -35
-121 -38 -249 -2 -61 -8 -115 -15 -129 -14 -25 -11 -73 9 -163 12 -53 11 -60
-11 -105 -22 -44 -24 -61 -25 -193 0 -129 -2 -149 -21 -180 -15 -24 -23 -61
-28 -120 -7 -74 -11 -89 -36 -118 -16 -18 -31 -45 -35 -60 -11 -52 -27 -87
-54 -117 -15 -16 -30 -38 -33 -47 -4 -10 -11 -18 -17 -18 -5 0 -17 -17 -25
-37 -13 -30 -13 -43 -4 -65 10 -25 9 -32 -8 -51 -37 -41 -93 -161 -93 -200 0
-16 -8 -30 -19 -37 -11 -5 -23 -24 -26 -42 -4 -18 -13 -44 -21 -58 -24 -44
-44 -120 -44 -163 0 -69 8 -84 46 -92 39 -7 46 -25 10 -25 -44 0 -90 -41 -108
-100 -10 -29 -26 -63 -37 -74 -11 -13 -21 -43 -25 -76 -12 -106 -18 -140 -26
-140 -16 0 -40 -69 -40 -114 0 -36 -5 -51 -24 -67 -13 -12 -27 -37 -31 -56 -3
-19 -12 -36 -20 -39 -7 -3 -18 -20 -25 -37 -6 -18 -20 -52 -30 -77 -25 -63
-40 -114 -40 -133 0 -9 -4 -17 -9 -17 -5 0 -12 -9 -16 -19 -3 -11 -19 -35 -34
-55 -16 -19 -31 -54 -35 -77 -7 -46 -33 -97 -51 -101 -20 -5 -104 -107 -130
-158 -13 -27 -29 -51 -34 -54 -5 -4 -7 -21 -4 -40 5 -35 -21 -91 -38 -80 -5 3
-12 -2 -15 -11 -4 -9 -24 -23 -45 -32 -21 -8 -41 -23 -44 -33 -3 -10 -26 -38
-50 -61 -25 -24 -45 -47 -45 -51 0 -10 -49 -58 -59 -58 -5 0 -14 -7 -21 -15
-13 -16 -63 -40 -162 -80 -32 -13 -71 -33 -88 -45 -17 -12 -36 -20 -43 -17 -6
2 -23 -4 -37 -13 -35 -24 -125 -34 -270 -31 -120 3 -178 11 -320 44 -89 21
-170 36 -270 48 -47 6 -93 15 -102 20 -10 5 -25 9 -33 9 -8 0 -23 4 -33 9 -9
4 -71 25 -137 45 -203 62 -310 98 -319 107 -6 5 -17 9 -26 9 -9 0 -58 21 -109
46 -68 34 -98 55 -112 79 -26 44 -50 52 -146 49 -92 -3 -103 -7 -103 -34 0
-22 -35 -44 -56 -36 -11 4 -14 18 -12 48 l3 43 50 6 c28 4 69 13 92 22 23 8
54 12 68 9 l26 -5 -23 47 c-12 25 -26 46 -31 46 -11 0 -46 42 -47 56 0 6 -18
24 -40 39 -36 25 -40 32 -40 72 0 42 -1 44 -46 63 -25 11 -49 20 -54 20 -5 0
-21 5 -37 11 l-28 11 24 9 c21 8 23 13 17 52 -4 23 -14 48 -24 55 -9 7 -25 31
-37 54 -13 28 -33 48 -58 61 -22 11 -60 48 -90 87 -29 37 -67 76 -85 86 -31
16 -33 22 -28 52 7 46 21 60 65 67 42 6 214 43 251 54 16 4 25 14 25 26 1 31
15 65 36 86 13 13 19 33 19 60 0 23 5 70 12 104 11 62 11 63 -20 109 -18 26
-35 58 -38 71 -6 24 -19 39 -96 109 -26 25 -42 51 -54 92 -9 32 -26 71 -37 86
-11 14 -17 33 -14 42 7 18 -20 104 -41 128 -8 10 -18 39 -23 65 -14 73 -86
173 -125 173 -12 0 -29 11 -38 24 -17 27 -106 92 -107 79 0 -4 -9 10 -20 32
-10 22 -19 36 -19 31 0 -5 -10 3 -21 18 -12 15 -39 38 -61 52 -21 14 -43 36
-48 49 -5 14 -14 25 -19 25 -5 0 -13 10 -17 23 -4 12 -15 28 -25 35 -11 7 -24
34 -30 58 -7 25 -18 48 -24 51 -7 2 -16 16 -20 31 -3 15 -16 34 -27 43 -12 9
-22 25 -23 35 -3 39 -29 130 -42 151 -9 13 -40 31 -79 43 l-65 22 -72 -35
c-40 -19 -88 -40 -107 -46 -19 -6 -53 -27 -74 -46 -22 -19 -45 -35 -53 -35
-19 0 -41 -40 -44 -80 -2 -44 9 -73 27 -66 18 7 18 -10 1 -21 -7 -4 -20 -19
-28 -33 -11 -16 -33 -30 -65 -38 -27 -8 -65 -20 -84 -27 -19 -8 -57 -17 -84
-20 -56 -8 -93 -27 -182 -95 -36 -28 -69 -50 -73 -50 -5 0 -18 -23 -30 -51
-21 -47 -21 -52 -7 -74 10 -15 35 -30 65 -39 88 -26 91 -29 91 -96 0 -32 -4
-62 -10 -65 -22 -14 0 -114 30 -135 21 -15 34 -63 36 -130 2 -75 18 -124 50
-151 10 -8 13 -21 9 -39 -5 -23 -2 -29 19 -34 31 -8 34 -36 6 -61 -18 -17 -21
-16 -64 9 -25 14 -47 35 -51 45 -3 11 -17 26 -30 35 -19 13 -25 25 -25 55 0
21 -3 53 -6 71 -6 29 -10 31 -35 26 -16 -3 -53 -1 -81 4 -60 12 -165 3 -171
-14 -3 -6 3 -43 13 -81 48 -193 52 -222 40 -257 -11 -29 -10 -39 4 -66 19 -37
20 -71 5 -106 -16 -35 3 -56 50 -56 40 0 61 -14 61 -41 0 -9 7 -22 15 -29 23
-19 18 -38 -15 -55 -21 -11 -36 -13 -48 -6 -11 6 -35 5 -67 -4 -47 -12 -50
-14 -48 -44 0 -18 8 -40 17 -50 23 -26 20 -47 -11 -69 -63 -45 -212 -28 -239
26 -16 32 -55 72 -70 72 -7 0 -22 9 -33 21 -10 11 -39 25 -63 30 -80 18 -128
40 -128 61 0 10 6 21 14 24 35 13 51 183 30 307 -11 64 -20 87 -47 117 -19 22
-40 37 -53 37 -25 -1 -84 23 -84 34 0 5 -5 9 -12 9 -6 0 -19 7 -28 15 -25 23
-48 8 -61 -39 -13 -45 -14 -66 -5 -170 4 -37 1 -87 -4 -110 -15 -57 -72 -166
-87 -166 -20 0 -31 -31 -26 -71 5 -32 2 -38 -18 -44 -13 -5 -29 -15 -35 -24
-8 -10 -30 -16 -70 -17 -33 -1 -74 -5 -92 -9 -19 -4 -44 -2 -61 5 -16 6 -60
13 -98 16 -37 2 -97 7 -133 11 -36 5 -86 6 -111 3 -86 -10 -128 -61 -74 -90
35 -19 17 -36 -53 -50 -68 -14 -132 -42 -157 -70 -10 -11 -28 -20 -40 -20 -13
0 -28 -7 -35 -15 -7 -8 -16 -13 -20 -10 -4 2 -15 -13 -25 -34 -25 -55 -88
-113 -175 -159 -63 -33 -88 -40 -158 -46 -45 -4 -93 -12 -107 -18 l-24 -11 25
-20 c23 -18 24 -21 10 -35 -13 -13 -64 -25 -146 -34 -8 -1 -39 1 -67 5 -47 7
-53 6 -53 -11 0 -10 5 -23 12 -30 17 -17 10 -20 -72 -33 -86 -13 -286 -7 -303
10 -20 20 2 24 131 28 138 4 178 12 220 47 35 30 96 50 128 42 21 -6 24 -3 24
19 0 14 -5 34 -12 45 -10 15 -9 22 6 38 11 13 14 22 7 27 -23 14 -9 31 39 48
33 12 54 26 60 40 4 12 29 41 54 65 26 24 46 51 46 63 0 12 13 33 28 48 16 14
38 47 50 74 11 26 25 47 31 47 6 0 28 18 50 40 22 22 47 40 56 40 34 0 187 84
212 116 13 18 37 37 53 44 16 7 36 23 45 36 8 13 24 24 35 24 11 0 24 9 29 19
16 29 108 71 140 65 18 -4 32 0 40 10 8 9 20 16 27 16 31 0 11 18 -28 26 -42
9 -43 10 -40 44 2 19 12 47 23 62 10 15 19 36 19 47 0 11 4 23 10 26 6 3 10
15 10 25 0 10 5 20 11 22 5 2 11 11 13 20 1 10 5 21 9 24 4 4 7 20 7 34 0 20
9 34 34 51 30 20 34 29 38 77 4 43 10 58 29 72 13 10 28 33 34 50 12 37 69
112 137 181 41 42 47 54 53 106 9 73 25 98 72 114 39 12 103 72 103 95 0 16
16 19 25 4 4 -6 15 -4 30 6 22 14 23 18 9 31 -9 10 -14 29 -12 52 3 32 9 39
50 61 47 24 48 25 78 6 30 -17 32 -17 45 1 41 53 4 131 -56 119 -62 -12 -58
54 6 108 48 39 81 45 158 25 36 -9 49 -7 90 11 47 21 57 36 36 57 -6 6 -12 26
-14 45 -2 30 -6 33 -36 36 -44 5 -109 -15 -109 -32 0 -15 -20 -25 -65 -33 -16
-3 -52 -14 -80 -25 -27 -11 -72 -28 -100 -39 -27 -10 -53 -25 -57 -33 -4 -7
-21 -19 -38 -26 -16 -7 -30 -16 -30 -20 0 -14 -123 -90 -145 -90 -11 0 -33 -9
-50 -20 -16 -11 -38 -20 -47 -20 -18 0 -108 -57 -120 -76 -12 -19 -162 -91
-177 -86 -9 3 -11 -1 -7 -15 3 -11 -1 -33 -9 -49 -43 -80 -51 -88 -108 -108
-43 -16 -63 -30 -82 -58 -14 -21 -32 -38 -40 -38 -7 0 -16 -8 -19 -18 -3 -10
-33 -47 -67 -82 -33 -36 -70 -76 -82 -89 -12 -13 -41 -32 -64 -42 -24 -10 -43
-21 -43 -24 0 -4 13 -25 28 -48 34 -50 62 -105 62 -122 0 -7 -9 -24 -20 -38
-15 -19 -20 -40 -20 -91 0 -62 -13 -128 -41 -206 -15 -44 -56 -110 -68 -110
-4 0 -25 -13 -46 -30 -22 -18 -50 -30 -67 -30 -16 0 -42 -9 -57 -21 -23 -17
-37 -20 -67 -15 -22 4 -77 9 -124 11 -47 2 -131 11 -188 20 -95 14 -162 13
-187 -5 -5 -3 -30 -12 -55 -19 -25 -7 -47 -16 -50 -20 -8 -10 -145 -71 -161
-71 -8 0 -36 -12 -64 -25 -27 -14 -56 -25 -62 -25 -7 0 -13 -7 -13 -14 0 -15
-80 -74 -149 -111 -21 -11 -53 -32 -72 -46 -19 -14 -63 -41 -99 -59 -36 -18
-77 -41 -92 -51 -14 -10 -31 -19 -36 -19 -6 0 -27 -15 -47 -34 -19 -19 -48
-37 -62 -41 -15 -3 -40 -17 -56 -31 -18 -15 -41 -24 -63 -24 -19 0 -56 -11
-82 -25 -26 -14 -59 -25 -73 -25 -32 0 -42 -9 -29 -25 14 -16 -97 -36 -238
-42 -117 -5 -162 6 -162 41 0 11 -16 38 -35 59 -34 37 -38 57 -10 57 15 0 55
60 55 83 0 29 56 77 89 77 20 0 34 6 38 16 3 8 17 20 30 25 14 5 27 18 30 28
6 22 40 34 100 36 29 0 50 8 66 23 13 12 28 22 34 22 5 0 30 24 54 52 61 73
110 118 128 118 9 0 27 16 41 36 24 36 85 70 140 80 14 3 33 16 43 29 10 14
28 25 40 25 13 0 41 19 66 45 36 37 52 46 92 51 35 5 53 13 63 29 8 13 37 31
63 41 26 9 58 26 69 36 12 11 35 27 52 36 70 39 142 93 142 106 0 9 17 18 43
24 58 14 110 34 193 76 56 27 73 41 78 62 4 15 16 40 27 55 10 15 19 32 19 38
0 6 11 13 24 17 13 3 30 17 37 31 7 14 23 29 35 34 15 5 39 41 69 103 47 95
69 119 119 132 16 4 28 15 32 30 3 13 10 24 15 24 5 0 15 15 23 34 8 18 23 40
33 47 11 8 28 29 37 48 10 18 30 46 46 61 15 15 33 37 39 49 7 11 17 21 24 21
24 1 54 36 61 71 3 20 14 43 24 51 9 9 38 35 63 59 26 24 54 43 63 41 9 -2 16
1 16 7 0 6 10 10 22 8 16 -1 28 9 48 43 14 25 40 52 56 60 17 8 60 36 97 63
36 26 71 47 77 47 6 0 16 14 21 30 7 18 18 30 28 30 18 0 81 59 81 76 0 22 37
54 55 48 20 -8 35 11 35 44 0 13 11 33 25 46 14 13 25 28 25 34 0 7 11 14 25
18 13 3 27 14 30 24 3 11 16 22 28 26 12 3 33 17 47 30 64 61 115 104 123 104
5 0 29 20 53 45 23 25 51 45 62 45 11 0 22 6 25 14 3 8 21 22 40 31 23 10 41
30 52 55 13 28 27 42 50 50 21 7 35 19 39 34 6 24 49 76 64 76 13 0 72 77 72
94 0 8 5 18 10 21 6 3 10 15 10 26 0 14 10 25 30 32 17 6 30 16 30 22 1 9 81
75 92 75 3 0 30 22 59 50 30 27 57 50 61 50 7 0 41 30 109 93 22 21 29 36 29
66 0 32 6 43 31 62 17 13 45 35 63 49 87 70 162 106 202 96 21 -6 25 -4 21 8
-5 12 5 18 36 26 76 20 112 35 124 51 7 10 34 18 71 22 32 4 71 13 87 21 25
13 30 13 56 -7 27 -19 29 -25 24 -66 -3 -26 -7 -61 -9 -79 -1 -18 -12 -45 -23
-60 -17 -24 -21 -50 -27 -193 -7 -144 -6 -167 8 -178 9 -8 16 -20 16 -28 0 -8
7 -27 15 -43 14 -26 13 -34 -1 -72 -27 -73 -28 -94 -5 -131 21 -35 27 -77 14
-91 -5 -4 -9 -21 -10 -37 -2 -16 -3 -37 -4 -46 -1 -10 1 -73 5 -139 5 -101 4
-124 -9 -134 -8 -7 -15 -9 -15 -5 0 4 -16 -12 -36 -36 -29 -35 -33 -44 -22
-56 11 -10 20 -11 46 -1 29 11 38 10 77 -11 25 -13 45 -28 45 -33 0 -5 -4 -6
-10 -3 -6 3 -10 -3 -10 -14 0 -10 6 -21 13 -24 18 -7 -61 -39 -109 -45 -28 -3
-53 -15 -79 -37 -27 -25 -55 -38 -110 -50 -40 -9 -78 -22 -84 -29 -7 -8 -9
-31 -5 -58 5 -32 2 -54 -11 -78 -19 -37 -10 -50 36 -50 15 0 46 -9 70 -20 24
-11 54 -20 66 -20 28 0 39 -18 16 -27 -26 -9 -73 -54 -73 -70 0 -9 15 -13 48
-13 56 0 68 7 77 42 8 31 29 53 44 44 5 -3 14 9 20 26 7 18 25 47 42 64 l30
31 -24 10 c-14 6 -46 15 -73 18 -62 9 -84 21 -84 44 0 16 11 20 78 25 42 4 94
7 114 7 39 0 67 26 82 77 4 12 12 22 17 22 11 0 239 231 239 242 0 4 31 31 70
59 39 28 70 55 70 60 0 12 15 30 56 72 18 18 38 43 44 57 7 14 21 30 30 37 10
7 18 24 18 37 0 16 18 46 51 82 28 32 51 63 51 68 0 6 11 24 25 40 14 16 25
32 25 36 0 5 12 21 27 37 16 17 36 57 46 90 10 34 31 76 47 94 16 19 30 39 30
44 0 6 14 24 30 42 17 18 30 37 30 43 0 6 8 10 17 8 11 -2 25 11 39 37 12 22
26 39 32 38 6 -1 16 10 23 26 9 20 25 33 50 40 20 6 42 18 49 26 7 8 21 15 31
15 29 0 60 57 48 88 -8 20 -6 27 11 39 11 8 20 22 20 32 0 10 11 26 25 35 14
9 25 22 25 29 0 14 35 47 50 47 5 0 20 14 32 31 13 17 35 37 50 45 35 18 78
58 78 73 0 6 5 20 12 30 10 16 7 25 -20 55 -18 20 -32 40 -32 45 0 15 49 53
60 46 6 -4 16 -2 23 4 7 5 49 13 92 16 53 4 85 11 95 22 11 12 12 17 3 20 -17
6 -16 18 4 61 20 43 21 44 121 148 89 93 139 118 214 108 57 -8 66 4 35 53
-31 52 -51 116 -44 145 4 14 18 37 31 51 21 23 33 27 83 27 32 0 72 2 88 4 17
2 35 4 42 5 18 2 63 72 64 101 0 19 23 45 91 103 49 42 96 77 105 77 9 0 13 6
10 14 -3 8 3 22 14 32 10 9 19 22 19 29 0 15 30 42 71 63 32 17 49 52 63 126
7 36 36 67 109 113 42 27 60 32 145 38 61 5 111 14 136 26 22 11 47 19 57 19
22 0 43 -26 35 -45 -3 -9 0 -15 10 -15 12 0 15 6 10 25 -5 19 -1 27 16 36 22
11 58 44 58 52 0 2 -98 7 -217 10 -212 6 -359 20 -377 37 -4 4 -23 -1 -42 -12
-31 -18 -52 -19 -271 -20 -242 0 -293 -3 -293 -18 0 -12 55 -27 120 -34 31 -3
82 -16 115 -30 l59 -24 1 -48 c0 -36 -5 -53 -21 -70 -16 -15 -26 -18 -33 -11
-8 8 -11 3 -11 -17 0 -16 4 -25 10 -21 6 3 22 -3 37 -15 16 -13 29 -17 31 -11
5 14 32 14 32 1 0 -5 6 -10 13 -10 7 0 29 -17 50 -38 49 -50 43 -73 -25 -90
-28 -6 -55 -9 -60 -6 -5 3 -33 10 -61 14 -29 5 -64 12 -79 16 -21 5 -32 1 -51
-20 -13 -14 -33 -27 -43 -29 -38 -8 -53 -19 -63 -48 -5 -16 -15 -29 -22 -29
-7 0 -27 -16 -45 -35 -30 -34 -35 -35 -101 -35 -38 0 -93 -7 -123 -15 -30 -9
-83 -20 -117 -27 -54 -9 -66 -9 -89 6 -16 11 -61 21 -120 27 -64 6 -111 16
-147 33 -28 13 -77 27 -107 31 -110 13 -200 55 -200 94 0 18 -93 114 -118 122
-7 2 -14 14 -17 27 -7 37 -53 132 -64 132 -16 0 -61 46 -61 62 0 27 23 37 63
28 20 -4 37 -5 37 -1 0 3 5 -2 11 -11 7 -13 23 -18 54 -18 57 0 58 15 3 24
-35 6 -40 9 -26 17 14 8 15 14 6 34 -19 42 -129 86 -140 55 -2 -6 -70 -6 -198
1 -214 12 -776 6 -1168 -11 -182 -9 -251 -9 -275 0 -71 26 -129 29 -166 9 -30
-16 -60 -18 -235 -19 -636 -4 -825 -7 -1046 -18 -135 -7 -463 -17 -730 -23
-463 -9 -720 -19 -785 -32 -16 -3 -165 -9 -330 -12 -165 -4 -345 -11 -400 -17
-55 -5 -239 -13 -410 -18 -199 -5 -344 -14 -405 -24 -213 -35 -403 -3 -423 73
-9 34 7 43 64 39 64 -5 342 17 414 33 28 6 201 15 385 19 184 5 387 13 450 19
63 6 246 13 405 17 390 8 412 8 473 -1 32 -5 52 -4 52 2 0 21 89 34 258 38 97
3 350 7 562 10 212 3 455 10 540 15 85 5 254 10 375 10 188 0 224 2 244 16 18
13 22 23 18 48 -6 41 0 56 23 56 19 0 23 -8 35 -68 12 -60 4 -59 346 -56 173
2 377 7 454 13 77 5 262 13 410 17 149 3 294 8 324 10 57 3 708 4 776 1 22 -1
65 5 97 12 45 11 80 12 170 3 72 -7 133 -7 168 -1 30 5 100 7 155 5 55 -3 177
-2 270 2 141 6 170 10 170 22 0 11 16 17 60 21 33 4 76 10 96 14 27 5 40 3 52
-9 10 -10 33 -16 61 -16 27 0 48 -5 53 -14 6 -10 48 -15 161 -20 l152 -7 0 33
c0 18 4 39 8 46 8 12 152 35 161 26 3 -3 6 -26 6 -52 3 -82 9 -90 63 -80 97
17 201 26 335 27 76 0 145 4 153 9 12 6 6 21 -30 77 -41 66 -44 75 -47 150 -4
129 -4 129 42 149 22 10 55 20 72 22 18 2 49 6 69 10 22 3 63 -1 103 -11 66
-16 127 -13 122 6 -1 6 22 20 52 31 45 17 60 19 86 9 38 -14 70 -14 94 -1 25
13 209 22 246 12 20 -6 31 -16 33 -31 2 -13 12 -26 23 -28 10 -3 20 -10 20
-17 1 -6 2 -15 4 -21 1 -5 3 -20 3 -32 1 -13 9 -23 17 -23 8 0 47 -32 86 -70
39 -39 90 -79 112 -90 52 -23 97 -64 130 -118 15 -22 31 -44 38 -48 6 -4 98
-13 203 -20 267 -18 306 -23 346 -42 64 -31 59 -44 -35 -88 -43 -20 -72 -24
-212 -30 l-163 -7 0 -29 c0 -19 6 -30 18 -34 36 -11 67 -30 67 -42 0 -7 5 -16
11 -20 6 -4 16 -17 23 -29 6 -12 25 -30 41 -40 17 -9 33 -25 36 -35 3 -10 20
-21 37 -26 23 -6 33 -15 35 -32 4 -25 63 -123 81 -134 6 -4 11 -15 11 -24 0
-10 8 -22 19 -29 10 -6 22 -29 26 -50 10 -55 33 -88 77 -113 43 -24 73 -24
382 6 82 8 249 14 371 14 122 0 283 3 357 7 l136 6 18 41 c23 50 41 54 90 21
l38 -26 186 6 c102 4 221 12 265 18 44 5 181 13 305 16 196 5 228 8 252 24 25
17 27 23 21 63 -5 42 -5 44 20 44 26 0 30 -7 39 -64 2 -11 17 -28 34 -38 29
-17 31 -17 71 3 33 16 73 22 195 29 84 5 187 14 228 19 41 5 138 13 214 16 76
4 145 9 152 12 7 2 25 20 39 39 26 34 26 36 10 60 -20 32 -14 50 19 56 37 7
61 -21 45 -55 -6 -14 -19 -28 -28 -29 -9 -2 6 -10 32 -17 42 -12 61 -12 141 3
51 9 126 16 168 16 41 0 90 3 107 6 l31 7 0 87 0 88 -32 6 c-18 3 -109 11
-202 16 -93 6 -172 13 -176 15 -3 2 -143 7 -311 10 -280 6 -402 13 -629 35
-47 5 -266 13 -488 19 -221 5 -408 13 -415 18 -6 4 -84 8 -172 10 -137 1 -380
7 -1200 26 -77 1 -147 6 -156 11 -10 4 -19 19 -22 34 -2 15 -7 34 -11 43 -5
11 2 20 21 30 45 23 886 26 1059 3 98 -12 259 -18 664 -24 294 -4 580 -13 635
-19 55 -7 141 -16 190 -22 50 -5 251 -14 448 -19 196 -5 385 -14 420 -20 34
-6 133 -13 220 -17 l157 -6 0 2336 0 2337 -7430 0 -7430 0 0 -1783z m340 1172
c0 -5 -4 -9 -10 -9 -5 0 -10 7 -10 16 0 8 5 12 10 9 6 -3 10 -10 10 -16z
m13115 -450 c12 -12 -6 -43 -27 -47 -8 -2 -25 6 -39 16 -20 17 -22 22 -9 36
14 18 55 15 75 -5z m-12925 -224 c22 -20 15 -82 -11 -90 -47 -15 -78 29 -58
82 10 27 44 31 69 8z m5190 -200 c21 -26 4 -45 -40 -45 -42 0 -58 15 -46 45 7
20 70 20 86 0z m2905 -197 c30 -14 31 -27 4 -62 -26 -33 -51 -33 -66 1 -29 62
-1 90 62 61z m-4949 -144 c9 -28 9 -38 -3 -50 -33 -33 -101 -2 -75 34 7 10 15
25 18 35 4 9 16 17 28 17 15 0 24 -9 32 -36z m4399 -238 c16 -12 18 -19 10
-43 -16 -43 -51 -43 -70 -1 -12 29 -12 34 2 46 22 16 35 15 58 -2z m688 -63
c20 -39 13 -53 -29 -53 -34 0 -46 21 -32 58 16 42 39 40 61 -5z m1195 -135
c22 -22 14 -67 -14 -80 -47 -22 -71 17 -49 80 6 15 47 16 63 0z m-5833 -57 c3
-5 1 -13 -5 -16 -15 -9 -43 3 -35 15 8 13 32 13 40 1z m8285 -81 c0 -11 5 -20
10 -20 6 0 10 -7 10 -15 0 -19 -46 -38 -71 -30 -24 8 -24 27 1 50 11 10 17 22
14 26 -3 5 4 9 15 9 14 0 21 -6 21 -20z m-9238 -4 c16 -12 15 -15 -10 -39 -35
-33 -42 -33 -72 -2 -19 20 -21 27 -10 40 15 18 69 19 92 1z m2986 -12 c28 -20
30 -69 3 -84 -47 -25 -84 -2 -84 51 0 47 38 63 81 33z m7791 -20 c13 -12 12
-17 -9 -39 -29 -31 -42 -31 -77 -1 -27 24 -27 25 -9 45 20 22 69 20 95 -5z
m-3763 -63 c12 -29 12 -32 -12 -48 -21 -14 -29 -14 -50 -3 -20 11 -24 20 -22
48 2 24 8 37 23 42 27 10 45 -1 61 -39z m-896 -11 c13 -8 13 -11 -2 -26 -20
-21 -48 -12 -48 16 0 22 24 27 50 10z m-2416 -67 c12 -43 -4 -64 -42 -54 -23
6 -27 13 -30 50 l-3 42 33 -3 c27 -2 34 -8 42 -35z m2903 31 c46 -12 27 -94
-21 -94 -38 0 -49 22 -32 64 16 38 18 39 53 30z m-9549 -22 l24 -18 -37 -28
c-20 -15 -41 -26 -48 -23 -19 7 -40 54 -34 71 9 22 66 20 95 -2z m7947 -208
c31 -20 32 -37 2 -56 -53 -35 -121 9 -81 53 21 23 47 24 79 3z m-1701 -13 c11
-12 15 -27 11 -44 -5 -17 -2 -28 9 -34 14 -8 13 -12 -8 -32 -14 -13 -31 -21
-39 -18 -8 3 -26 31 -41 63 -26 55 -27 59 -10 71 25 19 58 16 78 -6z m264 -97
c27 -18 27 -22 1 -54 l-21 -25 -19 24 c-29 35 -24 65 11 70 3 1 16 -6 28 -15z
m841 -13 c22 -14 5 -28 -45 -35 -44 -6 -84 5 -84 24 0 5 21 11 48 13 26 2 52
4 57 5 6 1 16 -2 24 -7z m-64 -71 c4 -6 1 -18 -6 -26 -16 -20 -2 -33 47 -45
64 -14 94 -12 94 9 0 11 -9 27 -20 37 -21 19 -18 35 6 35 18 0 124 -70 124
-81 0 -5 11 -16 25 -25 24 -16 28 -16 60 2 33 18 37 18 68 2 17 -9 51 -22 75
-28 36 -9 42 -14 42 -38 0 -34 29 -54 68 -46 26 5 31 2 49 -32 24 -47 39 -56
138 -80 28 -6 68 -19 90 -28 22 -8 51 -15 65 -16 50 -1 93 -60 44 -60 -8 0
-12 -4 -9 -10 3 -5 -10 -16 -30 -24 -27 -12 -35 -21 -35 -40 0 -33 13 -40 53
-27 43 14 102 0 136 -33 15 -14 41 -29 59 -32 30 -6 32 -9 32 -46 0 -29 -4
-39 -13 -35 -7 3 -34 0 -59 -7 -45 -11 -46 -12 -43 -51 2 -28 -4 -53 -21 -82
-13 -23 -24 -45 -24 -48 0 -4 19 -4 43 0 50 8 99 39 122 77 9 15 25 33 37 39
25 13 81 4 98 -16 14 -17 70 -21 70 -5 0 6 7 10 15 10 8 0 15 -4 15 -10 0 -5
15 -10 34 -10 23 0 44 -9 67 -29 20 -18 50 -32 76 -36 39 -6 43 -9 43 -33 0
-15 7 -38 16 -51 16 -22 15 -24 -12 -47 -28 -23 -35 -25 -137 -21 -64 2 -112
8 -119 15 -7 7 -20 12 -30 12 -10 0 -18 3 -18 8 0 4 -28 8 -62 10 -35 1 -76 5
-91 8 -21 4 -35 0 -52 -16 -13 -12 -40 -27 -60 -35 -27 -9 -42 -22 -51 -44
-13 -31 -13 -31 18 -31 17 0 39 7 49 16 27 25 93 10 129 -29 17 -18 30 -35 30
-39 0 -4 -13 -22 -29 -40 -28 -32 -30 -32 -112 -30 -46 1 -92 -1 -101 -4 -16
-5 -54 -94 -40 -94 4 0 -1 -5 -11 -11 -10 -6 -22 -21 -27 -35 -6 -15 -15 -22
-24 -18 -8 3 -17 1 -21 -5 -3 -6 -21 -11 -40 -11 -18 0 -35 -5 -37 -11 -2 -7
-28 -10 -68 -9 -95 4 -112 3 -264 -13 -83 -8 -154 -11 -180 -6 -22 5 -57 8
-76 9 -19 0 -47 7 -62 14 -16 8 -28 11 -28 5 0 -13 -98 -11 -102 3 -2 6 -31
13 -66 16 -59 4 -62 6 -64 31 0 14 -2 32 -2 40 -1 8 -13 15 -29 15 -16 1 -33
9 -38 19 -8 14 -26 17 -109 17 -97 0 -100 -1 -100 -22 0 -21 -19 -64 -20 -45
0 5 -5 5 -11 1 -7 -4 -33 -8 -58 -8 -36 -2 -52 -8 -73 -29 -31 -31 -43 -34
-52 -12 -3 8 -11 15 -19 15 -16 0 -55 40 -71 72 -21 41 -61 46 -405 46 -275 1
-330 -1 -358 -15 -18 -8 -33 -22 -33 -29 0 -22 -17 -17 -44 13 l-26 27 -596
-2 c-427 -1 -601 -5 -611 -13 -9 -8 -47 -10 -116 -7 -56 3 -132 2 -168 -3 -46
-6 -83 -4 -125 6 -51 12 -66 12 -114 -2 -30 -9 -107 -19 -170 -24 -64 -4 -145
-13 -180 -19 -36 -6 -211 -15 -390 -20 -179 -4 -365 -13 -415 -19 -49 -6 -134
-14 -188 -17 -90 -5 -101 -8 -132 -35 -18 -16 -37 -29 -41 -29 -5 0 -21 13
-36 29 -24 25 -37 29 -105 35 -74 7 -123 25 -123 46 0 15 72 80 89 80 21 0
185 8 481 22 129 6 359 14 510 18 151 3 344 13 428 20 142 13 157 13 215 -4
34 -10 81 -21 105 -23 37 -4 42 -3 42 16 0 11 9 25 19 31 25 13 154 13 167 0
7 -7 22 -6 47 5 76 32 207 10 207 -34 0 -21 22 -33 46 -24 9 3 14 13 11 24 -9
35 20 44 162 49 132 5 136 6 139 28 2 12 -3 29 -12 37 -25 25 -9 46 33 43 36
-3 36 -4 36 -48 l0 -45 100 1 c55 0 315 3 578 7 401 5 483 9 509 22 17 8 42
15 56 15 24 0 24 1 9 18 -36 39 -14 72 48 72 56 0 69 -11 62 -49 -6 -27 -3
-33 25 -47 24 -13 49 -15 122 -10 50 3 225 8 388 12 224 5 298 10 302 19 11
30 -129 62 -321 73 -88 5 -127 11 -137 22 -17 16 -26 156 -12 178 9 15 17 62
23 144 5 61 9 72 45 113 22 25 44 45 49 45 6 0 34 11 62 23 29 13 65 27 81 31
17 4 45 21 63 37 19 16 38 29 44 29 6 0 25 10 42 22 27 19 48 23 170 28 121 5
141 9 153 25 8 10 14 22 14 26 0 15 -75 29 -125 23 -60 -7 -74 4 -82 65 -4 27
0 46 11 62 9 13 16 37 16 55 0 17 3 34 7 37 10 10 31 8 38 -3z m7102 -12 c21
-17 15 -37 -17 -53 -23 -12 -34 -13 -55 -3 -29 13 -32 34 -8 60 18 20 54 18
80 -4z m-5095 -23 c15 -32 -3 -75 -31 -75 -24 0 -27 5 -36 52 -6 30 -4 37 12
41 36 9 44 7 55 -18z m-6434 -31 c28 -20 28 -30 -3 -50 -21 -14 -30 -14 -55
-4 -33 13 -35 21 -20 51 13 23 47 25 78 3z m7847 -38 c16 -12 18 -19 10 -52
-9 -34 -14 -39 -40 -39 -25 0 -33 6 -48 39 -18 38 -18 40 -1 53 23 17 55 17
79 -1z m-6137 -33 c-3 -33 -7 -38 -30 -41 -27 -3 -28 -1 -28 37 0 39 1 41 31
41 29 0 30 -2 27 -37z m4585 -7 l20 -38 -24 -19 c-31 -24 -40 -24 -68 2 -14
13 -20 27 -16 38 4 9 8 21 9 26 9 48 52 44 79 -9z m-3923 25 c0 -79 -51 -97
-66 -23 -6 31 -6 32 30 32 20 0 36 -4 36 -9z m4843 -19 c18 -20 13 -58 -9 -66
-8 -3 -26 -1 -40 4 -22 9 -25 14 -19 38 11 44 41 54 68 24z m-8655 -19 c15 -9
28 -18 30 -18 5 -3 -30 -64 -44 -76 -13 -11 -19 -8 -39 17 -27 32 -32 63 -13
82 16 16 34 15 66 -5z m7012 -2 c0 -5 9 -13 21 -16 30 -10 21 -46 -15 -58 -23
-8 -32 -6 -49 12 l-21 21 24 25 c24 26 40 32 40 16z m-3080 -16 c36 -18 36
-18 9 -62 -24 -39 -57 -42 -74 -7 -6 12 -17 29 -24 37 -10 13 -8 18 16 31 35
19 38 19 73 1z m1547 -10 c19 -17 24 -27 17 -32 -7 -5 -13 -17 -15 -28 -3 -11
-21 -29 -41 -40 -48 -26 -83 -11 -97 42 -9 33 -8 40 11 60 30 32 88 31 125 -2z
m-4653 -75 c9 -9 -11 -70 -23 -68 -3 1 -14 -2 -24 -7 -41 -18 -78 61 -39 85
18 11 71 5 86 -10z m4433 -16 c26 -17 30 -34 8 -34 -8 0 -21 -13 -30 -30 -31
-61 -77 -65 -146 -12 -60 46 -61 70 -4 88 48 16 140 9 172 -12z m-1368 -156
c33 -35 32 -47 -7 -70 -23 -14 -30 -14 -53 -2 -15 7 -29 20 -32 27 -5 14 38
77 53 77 5 0 22 -14 39 -32z m-859 -127 c0 -23 -31 -51 -57 -51 -12 0 -23 5
-23 10 0 6 -6 10 -14 10 -23 0 -28 31 -9 54 39 46 45 48 75 19 15 -15 28 -33
28 -42z m-2048 5 c20 -15 18 -70 -3 -74 -16 -3 -49 46 -49 72 0 19 28 20 52 2z
m3212 -5 c16 -18 15 -20 -21 -48 -61 -48 -68 -47 -68 4 0 46 13 63 51 63 11 0
29 -8 38 -19z m257 9 c10 -6 19 -18 19 -26 0 -23 -84 -15 -88 8 -3 14 10 22
41 27 5 0 17 -4 28 -9z m2943 -5 c41 -17 42 -22 20 -53 -19 -28 -44 -28 -78
-1 -32 25 -33 47 -3 59 12 5 23 9 23 9 1 1 18 -6 38 -14z m-5455 -84 c15 -10
7 -63 -13 -80 -22 -18 -55 -1 -67 36 -9 29 -9 37 2 44 18 11 60 11 78 0z
m2189 -67 c27 -19 28 -45 2 -69 -18 -16 -23 -17 -46 -4 -37 19 -41 37 -13 64
29 29 29 29 57 9z m5377 -44 c17 -19 17 -21 1 -39 -20 -22 -73 -15 -90 12 -9
15 -7 21 8 33 28 20 60 18 81 -6z m2320 -10 c15 -16 16 -22 5 -35 -16 -20 -59
-16 -73 7 -8 12 -7 21 2 32 18 22 44 20 66 -4z m-7397 -12 c7 -7 12 -29 12
-50 0 -32 -4 -39 -25 -44 -34 -8 -53 1 -60 28 -9 37 11 78 38 78 13 0 28 -5
35 -12z m-4120 -70 c7 -7 12 -29 12 -50 0 -45 -24 -63 -63 -49 -34 13 -38 23
-31 70 6 38 9 41 38 41 18 0 37 -5 44 -12z m-1180 -100 c-5 -57 -57 -48 -58
10 0 18 5 22 31 22 28 0 30 -2 27 -32z m8530 -6 c3 -10 -4 -13 -24 -10 -15 2
-29 9 -32 16 -3 10 4 13 24 10 15 -2 29 -9 32 -16z m4627 6 c14 -6 26 -16 26
-22 5 -45 -17 -76 -53 -76 -16 0 -48 54 -48 82 0 7 22 19 47 27 1 1 14 -4 28
-11z m-2249 -83 c3 -8 3 -19 -1 -25 -10 -16 -35 7 -28 26 7 18 22 18 29 -1z
m-578 -84 c28 -20 31 -21 455 -51 70 -5 132 -12 137 -15 5 -3 56 -8 114 -10
l106 -5 34 30 c40 36 47 37 72 9 31 -35 60 -40 264 -49 512 -22 849 -48 886
-68 10 -5 80 -13 154 -16 304 -14 350 -17 382 -27 18 -5 49 -9 69 -9 44 0 65
-16 74 -57 11 -54 -6 -57 -284 -50 -187 4 -254 9 -281 20 -42 18 -246 37 -408
37 -64 1 -137 6 -162 11 -44 11 -267 22 -685 34 -171 6 -221 10 -267 26 -53
19 -93 21 -460 25 -222 2 -414 7 -428 10 -36 8 -109 15 -250 22 l-125 7 -3 30
c-2 20 4 38 18 53 20 22 25 22 259 22 223 0 240 1 262 20 30 24 34 24 67 1z
m-10398 -168 c0 -16 -47 -36 -67 -29 -16 6 -17 35 -3 72 l11 27 29 -28 c17
-16 30 -35 30 -42z m13286 -136 l27 -24 -21 -21 c-12 -12 -22 -26 -22 -32 0
-5 -16 -10 -35 -10 -28 0 -35 4 -35 19 0 11 -4 23 -10 26 -14 8 -13 38 2 53
19 19 65 14 94 -11z m-12792 -24 c19 -26 19 -26 -3 -45 -29 -23 -43 -23 -72 1
-22 17 -22 21 -10 45 19 35 59 34 85 -1z m2660 -355 c10 -38 7 -48 -16 -57
-33 -12 -58 4 -58 38 0 35 6 41 41 41 19 0 28 -6 33 -22z m2006 -18 c0 -5 8
-16 17 -26 16 -16 15 -18 -11 -40 -33 -29 -48 -30 -71 -4 -16 17 -16 23 -4 52
7 18 17 36 23 40 11 8 46 -8 46 -22z m7038 -77 c4 -31 -33 -48 -71 -34 -50 19
-25 64 33 59 28 -2 36 -8 38 -25z m-7943 -39 c7 -40 -3 -54 -42 -54 -21 0 -53
24 -53 40 0 5 12 22 26 39 32 39 58 29 69 -25z m-1572 -2 c13 -12 17 -27 15
-56 -3 -36 -6 -41 -29 -44 -21 -2 -33 6 -58 36 -37 47 -38 56 -9 76 24 17 52
13 81 -12z m9322 12 c8 -4 22 -19 30 -35 14 -27 14 -29 -10 -45 -21 -14 -31
-15 -51 -6 -33 16 -39 35 -19 66 18 28 24 30 50 20z m-1340 -32 l60 -18 -34
-12 c-19 -7 -59 -15 -88 -19 -43 -5 -57 -2 -73 12 -20 18 -20 18 7 37 35 22
53 22 128 0z m-4879 -22 c15 -6 24 -13 21 -16 -3 -3 -2 -16 3 -29 12 -33 -11
-52 -48 -39 -15 5 -27 15 -26 22 1 6 2 26 3 42 1 33 6 35 47 20z m4552 -12
c18 -18 14 -56 -7 -67 -28 -15 -47 15 -42 67 1 15 33 16 49 0z m790 -83 c1 -1
-7 -12 -18 -25 -19 -22 -20 -22 -55 -6 -40 19 -41 35 -5 53 19 9 28 8 49 -5
14 -9 27 -17 29 -17z m-7597 -54 c20 -16 22 -21 10 -35 -17 -20 -50 -17 -64 6
-8 12 -7 21 2 32 17 20 24 20 52 -3z m-2200 -1 c69 -5 170 -18 225 -30 113
-23 170 -28 494 -41 226 -8 340 -19 387 -34 19 -6 52 -60 42 -69 -2 -2 -28
-15 -57 -30 -50 -24 -56 -25 -85 -12 -18 8 -83 17 -147 20 -63 4 -140 13 -170
21 -30 8 -107 20 -170 25 -170 16 -499 41 -630 49 -108 7 -160 20 -160 41 0 5
4 20 9 34 15 37 57 41 262 26z m3102 -38 c9 -10 20 -32 23 -50 5 -27 3 -33
-19 -43 -21 -10 -31 -9 -50 4 -28 18 -43 73 -26 93 16 20 53 17 72 -4z m382
-42 c33 0 59 -28 44 -46 -6 -8 -18 -14 -25 -14 -18 0 -55 -21 -70 -39 -13 -16
-64 -8 -64 11 0 6 -8 20 -17 30 -13 15 -15 23 -7 36 11 17 75 33 102 26 8 -2
24 -4 37 -4z m-2063 -53 c7 -8 42 -16 78 -20 73 -6 103 -29 75 -57 -28 -27
-345 -9 -345 20 0 10 23 29 63 50 39 21 111 25 129 7z m1178 -39 c0 -16 -3
-19 -11 -11 -6 6 -8 16 -5 22 11 17 16 13 16 -11z m-745 -14 c22 -22 2 -44
-39 -44 -41 0 -71 21 -63 44 9 22 80 22 102 0z m10347 -41 c45 -41 -7 -118
-59 -85 -14 9 -28 77 -18 91 10 17 56 13 77 -6z m-8332 -5 c0 -7 12 -22 28
-34 l27 -22 -24 -26 c-14 -14 -32 -26 -42 -26 -9 0 -22 -7 -29 -15 -18 -22
-49 -15 -72 15 -24 32 -18 47 35 87 43 33 77 42 77 21z m-2805 -28 c35 -39
-16 -74 -58 -39 l-22 19 24 20 c29 25 34 25 56 0z m686 -89 c19 -16 22 -23 13
-37 -19 -32 -39 -38 -73 -24 -35 14 -37 21 -15 55 20 30 44 32 75 6z m-726
-11 c8 -14 -21 -24 -42 -15 -17 7 -16 8 2 15 27 12 33 12 40 0z m9490 -16 c32
-21 32 -39 1 -59 -20 -14 -29 -14 -48 -4 -35 18 -39 32 -16 56 26 27 31 28 63
7z m-5550 -8 c18 -13 18 -14 -2 -24 -15 -9 -25 -8 -39 3 -17 13 -17 16 -4 25
20 13 23 13 45 -4z m-2885 -10 c16 -20 9 -60 -12 -64 -19 -4 -32 29 -23 58 8
24 18 25 35 6z m7674 -2 c15 -14 14 -18 -4 -44 -11 -15 -20 -40 -20 -53 0 -14
-5 -29 -10 -32 -6 -4 -8 -15 -5 -25 3 -11 0 -20 -10 -24 -19 -7 -55 10 -55 25
0 7 -13 9 -32 7 -35 -6 -118 24 -118 41 0 22 46 41 97 41 52 0 53 1 53 30 0
17 7 33 18 39 26 15 69 13 86 -5z m-4111 -31 c-2 -7 11 -20 28 -28 25 -13 28
-19 18 -31 -6 -8 -17 -14 -23 -14 -7 0 -29 -9 -51 -20 -50 -25 -57 -25 -83 3
l-21 22 20 43 c20 43 20 43 67 40 31 -2 46 -7 45 -15z m6231 -37 c31 -41 32
-52 7 -66 -28 -14 -64 -13 -87 4 -16 13 -17 18 -6 33 6 10 16 28 22 41 13 31
33 28 64 -12z m-8333 -63 c6 -15 16 -31 22 -35 19 -13 -21 -38 -59 -38 -43 0
-63 24 -40 48 9 10 16 26 16 35 0 30 49 21 61 -10z m-3786 -27 c15 -11 17 -17
7 -28 -6 -8 -9 -17 -6 -21 3 -3 -4 -11 -17 -17 -19 -11 -25 -10 -36 6 -14 19
-8 54 11 66 15 11 20 10 41 -6z m4535 -1 c37 -19 37 -32 4 -68 l-26 -29 -29
34 c-15 18 -28 35 -28 38 -1 14 21 32 47 39 2 1 16 -6 32 -14z m6313 -32 c11
-6 -3 -66 -17 -75 -16 -11 -26 -10 -26 3 0 6 -9 22 -20 36 -15 20 -17 29 -9
39 10 13 47 11 72 -3z m-5187 -28 c9 -14 21 -25 28 -25 29 -1 37 -16 22 -45
-25 -48 -137 -79 -191 -51 -19 10 -35 12 -52 5 -34 -13 -37 -12 -50 18 -21 44
-16 50 44 58 73 9 83 13 94 41 7 20 16 24 49 24 31 0 43 -5 56 -25z m-5726
-85 c260 -13 619 -12 656 2 27 9 43 9 91 -5 74 -21 232 -37 381 -38 142 -1
221 -11 233 -30 16 -25 10 -57 -11 -64 -44 -14 -425 1 -660 26 -230 24 -278
27 -500 28 -129 1 -304 5 -389 10 -159 10 -189 19 -175 54 5 13 20 17 73 18
36 0 75 4 86 9 11 5 29 6 40 3 11 -3 90 -9 175 -13z m3468 -11 c2 -14 -4 -31
-12 -39 -9 -7 -16 -18 -16 -24 0 -23 69 -46 138 -46 67 0 142 -15 142 -28 0
-4 -5 -14 -10 -22 -8 -12 -46 -16 -224 -18 -186 -3 -219 -1 -247 14 l-33 17
23 18 c13 11 31 19 40 19 10 0 28 11 41 25 19 20 33 25 72 25 50 0 54 5 39 45
-10 24 5 47 28 43 9 -2 17 -15 19 -29z m-958 -9 c0 -34 29 -79 53 -85 12 -3
125 -6 251 -8 209 -4 230 -5 243 -22 11 -16 11 -21 -2 -35 -14 -13 -65 -15
-398 -13 -358 2 -452 5 -569 19 l-48 6 0 -40 c0 -50 -28 -79 -59 -62 -16 8
-21 20 -21 49 0 21 -6 43 -13 49 -8 7 -75 12 -173 13 -215 2 -236 1 -245 -13
-9 -14 -1 -57 13 -75 5 -7 7 -17 3 -23 -4 -6 -2 -16 4 -23 5 -7 7 -17 3 -22
-15 -21 -38 -13 -62 20 -14 19 -31 35 -37 35 -7 0 -13 9 -13 20 0 10 6 23 13
27 6 4 12 15 12 23 0 8 11 16 23 18 18 3 23 9 19 22 -3 12 5 30 21 47 l26 28
244 0 c225 0 244 -1 254 -18 8 -16 12 -17 26 -4 23 19 68 20 152 2 39 -8 98
-15 130 -15 57 0 60 1 73 33 8 17 17 40 21 50 8 26 56 23 56 -3z m2066 -70
c37 -32 48 -36 137 -45 46 -5 58 -10 55 -23 -5 -24 -57 -33 -193 -34 -84 0
-126 -5 -140 -14 -11 -8 -31 -14 -45 -14 -16 0 -35 -10 -48 -25 -19 -22 -30
-25 -91 -25 -83 0 -146 22 -136 48 4 9 9 31 12 47 8 56 51 69 115 36 22 -11
42 -15 50 -10 7 5 44 9 81 9 79 0 101 9 122 50 20 38 39 38 81 0z m6176 -13
c5 -7 7 -23 6 -37 -3 -21 -9 -26 -48 -32 -67 -10 -195 -9 -223 1 -17 7 -50 5
-100 -3 -71 -13 -149 -9 -147 6 5 60 12 68 59 69 25 1 93 5 151 9 134 10 292
3 302 -13z m-10667 -55 c6 -4 21 -21 33 -38 l21 -31 -34 -19 c-27 -14 -39 -16
-53 -8 -24 15 -26 48 -6 78 17 28 23 30 39 18z m3940 -78 c45 -30 20 -104 -34
-104 -33 0 -46 13 -55 57 -6 28 -4 34 21 47 36 19 39 19 68 0z m6480 -6 c29
-13 32 -30 9 -53 -12 -12 -27 -14 -67 -9 -29 4 -58 11 -64 17 -22 17 -15 37
15 38 15 0 36 4 47 9 27 12 30 12 60 -2z m-9978 -43 l23 -34 -22 -16 c-29 -20
-62 -19 -83 1 -11 12 -13 20 -6 27 6 6 11 19 11 29 0 19 27 38 44 32 6 -3 21
-20 33 -39z m2197 39 c11 -4 16 -19 16 -44 0 -30 -5 -40 -20 -45 -23 -7 -50
10 -50 31 0 22 19 64 29 64 5 0 16 -3 25 -6z m1771 -134 c8 -7 15 -18 15 -25
0 -23 35 -44 86 -50 44 -6 52 -11 61 -36 8 -19 18 -29 32 -29 12 0 21 -5 21
-11 0 -8 17 -9 55 -4 51 6 55 5 55 -14 0 -11 -8 -24 -17 -30 -14 -8 -11 -10
20 -15 20 -3 54 -9 75 -13 20 -3 59 -5 85 -4 57 3 100 -19 90 -47 -27 -74 -87
-108 -223 -124 -55 -7 -100 -15 -100 -19 0 -4 17 -10 38 -14 20 -4 42 -10 47
-15 16 -12 84 -19 90 -9 7 11 65 12 65 1 0 -4 -6 -14 -12 -20 -7 -7 -13 -16
-14 -20 -1 -17 -39 -92 -46 -92 -5 0 -8 -9 -8 -19 0 -11 -15 -28 -35 -40 -19
-11 -35 -27 -35 -35 0 -7 -7 -16 -15 -20 -8 -3 -15 -15 -15 -26 0 -11 -6 -20
-14 -20 -8 0 -20 -13 -27 -29 -14 -32 -42 -37 -68 -13 -9 9 -24 11 -40 7 -47
-11 -115 -26 -148 -32 -28 -4 -34 -2 -42 20 -10 26 -4 135 9 152 4 6 13 35 20
65 6 30 18 77 26 104 14 48 14 49 -15 85 -25 32 -29 44 -27 92 2 54 2 55 -40
81 -34 21 -44 34 -50 63 -4 25 -14 39 -29 45 -12 5 -25 16 -29 25 -8 22 -8 90
1 99 12 11 141 0 158 -14z m-1392 -16 c15 -20 16 -28 7 -39 -15 -18 -41 -19
-64 -2 -16 12 -16 14 4 40 26 33 30 33 53 1z m9788 5 c14 -14 19 -30 17 -52
-2 -27 -8 -33 -31 -35 -37 -5 -57 13 -57 52 0 55 34 72 71 35z m-408 -62 c9
-14 0 -56 -15 -75 -6 -7 -22 -12 -36 -10 -30 4 -59 73 -40 96 13 16 78 8 91
-11z m-2407 -25 c17 -11 24 -54 12 -69 -14 -17 -53 -17 -68 2 -19 23 -3 75 23
75 12 0 27 -4 33 -8z m-7558 -101 c30 -26 28 -47 -9 -65 -24 -12 -34 -13 -50
-3 -27 17 -31 35 -13 63 19 29 41 30 72 5z m1749 -83 c60 -55 8 -95 -107 -83
-36 4 -85 7 -110 6 -51 -2 -84 16 -75 41 9 22 44 29 110 22 48 -6 55 -4 62 12
3 11 11 22 17 26 17 12 79 -3 103 -24z m7424 12 c25 -14 25 -56 -1 -70 -22
-12 -24 -10 -34 48 -6 34 2 39 35 22z m529 -30 c26 -51 25 -64 -4 -79 -32 -18
-58 -11 -75 21 -14 24 -14 30 2 62 23 49 51 48 77 -4z m-1724 -55 c18 -12 20
-20 14 -54 -13 -74 -44 -91 -74 -41 -14 24 -15 34 -6 45 6 8 9 18 6 24 -10 15
5 41 23 41 9 0 26 -7 37 -15z m-10208 -63 c7 -5 13 -26 15 -48 2 -38 1 -39
-36 -42 -48 -4 -56 15 -27 63 23 37 27 40 48 27z m9829 -5 c21 -12 21 -13 4
-36 -15 -19 -23 -22 -50 -16 -37 8 -49 28 -31 50 15 18 47 19 77 2z m-8177
-82 c0 -16 -25 -26 -45 -19 -20 8 -19 31 2 43 20 11 43 -3 43 -24z m8550 -25
c0 -7 -24 -20 -36 -20 -2 0 -4 9 -4 19 0 14 5 18 20 14 11 -3 20 -9 20 -13z
m-11346 -16 c38 -34 26 -59 -29 -59 -53 0 -68 25 -35 60 13 14 26 25 29 25 3
0 19 -12 35 -26z m1746 -31 c28 -16 28 -16 12 -50 -13 -27 -21 -33 -41 -31
-16 2 -31 14 -41 31 -14 27 -14 29 9 48 28 23 26 23 61 2z m369 -84 c35 -12
38 -24 14 -51 -25 -28 -71 -24 -85 8 -11 22 -10 28 7 40 23 17 24 17 64 3z
m8955 -115 c21 -21 20 -41 -3 -54 -26 -13 -33 -13 -55 3 -18 13 -18 15 -1 40
20 31 37 34 59 11z m-9665 -90 c21 -5 37 -16 46 -35 28 -52 -4 -74 -90 -62
-58 8 -78 37 -51 78 17 26 38 30 95 19z m9499 -88 c14 -36 14 -40 -2 -51 -25
-19 -76 2 -76 30 0 24 37 68 52 63 6 -2 17 -21 26 -42z m-10289 -180 c13 -13
13 -20 3 -34 -6 -9 -17 -28 -22 -41 -8 -18 -14 -21 -22 -13 -7 7 -19 12 -28
12 -20 0 -43 54 -35 81 6 18 13 21 47 16 23 -3 48 -13 57 -21z m852 -5 l22
-18 -22 -37 c-12 -20 -26 -36 -31 -36 -23 0 -42 15 -56 47 -16 32 -16 35 2 48
26 20 58 18 85 -4z m423 -2 c14 -13 -14 -59 -36 -59 -25 0 -68 29 -68 46 0 30
76 40 104 13z m-222 -76 c23 -21 23 -30 -1 -43 -24 -12 -71 3 -71 23 0 35 42
47 72 20z m1281 -102 c41 -16 43 -36 8 -71 -25 -25 -37 -31 -67 -28 -32 3 -38
7 -50 43 -13 38 -13 41 8 58 23 19 47 19 101 -2z m-2878 -13 c20 -9 25 -18 25
-48 0 -41 -14 -60 -46 -60 -34 0 -55 36 -41 69 11 27 27 51 33 51 2 0 15 -5
29 -12z m2177 -17 c4 -3 10 -18 13 -33 6 -23 3 -29 -19 -39 -20 -9 -32 -9 -52
0 -22 10 -25 16 -19 39 10 39 25 53 49 46 12 -3 24 -9 28 -13z m-1778 -55 c21
-33 -53 -63 -82 -34 -19 19 -14 45 10 62 19 13 25 14 42 3 11 -8 25 -21 30
-31z m10465 -3 c11 -24 10 -29 -11 -45 -31 -24 -52 -19 -56 15 -5 41 4 57 31
57 16 0 28 -9 36 -27z m1828 10 c3 -10 12 -25 20 -34 29 -34 -15 -67 -64 -48
-22 8 -25 14 -19 41 11 54 49 79 63 41z m-10214 -20 c-7 -2 -21 -2 -30 0 -10
3 -4 5 12 5 17 0 24 -2 18 -5z m10556 -8 c38 -19 45 -41 21 -65 -24 -24 -57
-26 -82 -3 -24 22 -23 49 4 67 27 19 23 19 57 1z m-12899 -305 c28 -28 34 -63
16 -98 -9 -17 -20 -33 -26 -37 -16 -10 -45 11 -65 48 l-18 34 28 37 c32 42 38
43 65 16z m10726 6 c39 -29 -21 -70 -67 -46 -22 12 -25 30 -7 48 16 16 50 15
74 -2z m-11002 -98 c33 -14 40 -38 37 -118 -4 -91 -28 -113 -72 -69 -16 16
-20 29 -15 51 3 17 0 41 -9 57 -13 25 -12 31 8 59 26 37 20 35 51 20z m-511
-131 c13 -9 16 -20 11 -45 -13 -67 -94 -67 -108 -1 -3 18 -1 37 5 45 14 17 70
18 92 1z m2382 -116 c8 -13 -23 -41 -46 -41 -14 0 -19 7 -19 25 0 21 5 25 29
25 17 0 32 -4 36 -9z m9305 -11 c20 -16 23 -22 14 -37 -15 -25 -71 -29 -95 -7
-19 17 -19 18 3 41 26 28 45 29 78 3z m-9484 -80 c19 0 19 -64 0 -80 -26 -21
-60 -8 -67 25 -6 34 16 69 39 60 7 -3 20 -5 28 -5z m10132 -32 c19 -19 14 -32
-19 -57 l-31 -23 -25 25 c-36 36 -25 67 26 67 20 0 42 -5 49 -12z m-12252
-133 c19 -15 19 -15 -5 -35 -29 -25 -36 -25 -62 1 -16 16 -18 23 -8 35 15 18
50 18 75 -1z m649 -23 c14 -10 13 -54 -2 -59 -15 -5 -47 42 -38 57 7 12 26 13
40 2z m-461 -117 c13 -14 31 -25 41 -25 20 0 55 -27 55 -42 0 -16 -58 -68 -75
-68 -9 0 -19 8 -22 19 -3 11 -20 23 -44 30 -47 14 -65 41 -48 74 24 45 59 49
93 12z m14266 -19 c0 -21 -17 -29 -46 -22 -38 10 -30 36 11 36 24 0 35 -5 35
-14z m-322 -19 c6 -32 -7 -67 -26 -67 -41 1 -63 47 -36 74 21 21 58 17 62 -7z
m-12431 -92 c26 -24 26 -25 8 -45 -23 -25 -57 -26 -79 -1 -17 19 -17 21 1 45
23 32 37 32 70 1z m10914 -188 c40 -31 17 -97 -35 -97 -47 0 -57 49 -18 93 18
20 31 21 53 4z m-6665 -22 l52 -25 -37 -40 c-47 -52 -79 -53 -115 -6 -32 42
-33 59 -3 79 30 22 42 21 103 -8z m7420 -12 c19 -20 34 -38 34 -40 0 -1 -13
-9 -30 -18 -42 -21 -76 -19 -95 7 -14 22 -14 24 17 54 18 18 35 32 37 33 2 1
19 -16 37 -36z m-12778 -69 c20 -14 22 -18 9 -33 -8 -9 -17 -24 -20 -33 -11
-30 -41 -21 -62 18 -19 36 -19 36 0 50 25 18 45 18 73 -2z m5192 -91 c14 -10
36 -23 50 -29 25 -11 24 -11 -23 -32 -45 -20 -51 -20 -78 -7 -35 18 -38 47 -6
68 28 20 28 20 57 0z m6687 -50 c6 -17 -35 -36 -63 -29 -25 7 -33 31 -11 40
21 9 70 2 74 -11z m-1598 -44 c16 -47 14 -56 -19 -68 -47 -16 -65 -4 -61 39 5
50 12 60 40 60 24 0 31 -6 40 -31z m-10041 -1 c4 -19 -30 -41 -52 -32 -20 8
-29 36 -14 46 21 13 63 5 66 -14z m4932 -79 c0 -5 17 -17 37 -26 l38 -15 -40
-34 c-42 -35 -95 -46 -95 -20 0 8 -12 24 -27 35 l-26 21 23 25 c24 26 90 36
90 14z m6718 -25 c33 -23 29 -60 -9 -73 -58 -20 -89 20 -51 67 20 26 30 27 60
6z m-924 -90 c9 -9 40 -19 69 -23 28 -4 61 -12 71 -18 19 -10 19 -11 0 -21
-23 -12 -193 -7 -206 6 -13 13 18 72 37 72 7 0 21 -7 29 -16z m-826 -110 c33
-23 26 -57 -13 -65 -57 -11 -84 24 -48 63 20 22 32 23 61 2z m-10867 -45 c14
-27 0 -49 -31 -49 -43 0 -52 20 -28 58 21 34 37 32 59 -9z m3300 15 c9 -11 10
-20 2 -32 -12 -20 -58 -23 -57 -4 1 6 2 21 3 32 1 24 33 27 52 4z m-2753 -56
c16 -16 15 -63 -2 -77 -9 -8 -21 -8 -40 -1 -21 8 -26 16 -26 43 0 19 3 37 7
40 11 11 48 8 61 -5z m12157 -24 c0 -12 -8 -20 -22 -22 -25 -4 -31 16 -11 36
17 17 33 10 33 -14z m1858 -178 c26 -20 21 -44 -13 -61 -29 -15 -33 -15 -65 5
-41 25 -43 32 -12 53 27 20 66 21 90 3z m-8929 -57 c9 -17 13 -35 10 -40 -9
-15 -71 -10 -84 6 -13 16 -5 34 28 62 19 16 27 10 46 -28z m5240 -209 c33 -12
33 -33 1 -54 -31 -20 -74 -21 -103 0 -61 42 20 85 102 54z m426 -25 c29 -35
14 -85 -25 -85 -19 0 -26 7 -31 28 -3 15 -7 32 -9 38 -9 30 43 45 65 19z
m1544 -63 c11 -39 -3 -54 -44 -50 -30 3 -38 30 -19 65 19 34 51 27 63 -15z
m-10785 -54 c21 -46 5 -63 -54 -61 -58 2 -92 27 -61 45 10 6 26 18 35 28 27
30 64 25 80 -12z m4269 -42 c10 -10 9 -16 -7 -30 -35 -32 -101 3 -71 39 13 16
56 11 78 -9z m4753 -6 c40 -22 14 -80 -36 -80 -18 0 -54 37 -55 56 -1 30 52
44 91 24z m-5305 -85 c13 -8 24 -17 24 -19 0 -1 -16 -19 -35 -39 -39 -40 -56
-45 -74 -23 -7 8 -31 18 -54 21 -37 7 -66 27 -67 47 0 4 7 14 16 22 20 21 155
14 190 -9z m6919 -7 c54 -24 13 -70 -50 -54 -29 7 -32 27 -9 50 19 19 25 20
59 4z m-8436 -122 c13 -27 12 -31 -9 -48 -31 -25 -60 -8 -60 36 0 18 3 36 7
40 15 15 48 0 62 -28z m8190 -2 c2 -2 2 -7 -2 -10 -8 -9 -47 6 -47 17 0 9 37
3 49 -7z m-781 -27 c6 -49 -30 -73 -62 -42 -25 25 3 78 38 73 15 -2 22 -12 24
-31z m-5444 -26 c4 -5 -7 -19 -23 -30 -26 -19 -34 -20 -81 -10 -60 13 -120 5
-120 -16 0 -19 -37 -38 -54 -28 -26 15 -68 73 -63 87 7 17 61 28 90 17 39 -14
98 -11 135 8 36 19 38 19 74 0 20 -10 39 -23 42 -28z m-4379 23 c18 -18 7 -39
-26 -49 -22 -7 -59 11 -59 28 0 36 56 49 85 21z m3014 -8 c9 -11 8 -18 -4 -30
-35 -34 -115 -7 -85 29 16 19 74 20 89 1z m1742 -15 c23 -18 23 -20 6 -38 -9
-11 -17 -24 -17 -30 0 -6 -13 1 -30 15 -42 37 -39 68 6 71 7 1 22 -8 35 -18z
m-5770 -171 c37 -20 19 -90 -23 -90 -35 0 -54 84 -20 93 9 3 18 5 20 6 2 0 12
-4 23 -9z m2854 -20 c3 -4 -7 -10 -20 -13 -26 -4 -41 6 -31 22 7 10 43 3 51
-9z m8193 -13 c16 -13 15 -20 -9 -51 -19 -24 -22 -25 -48 -12 -47 25 -55 42
-32 65 22 22 60 21 89 -2z m-5778 -75 c16 -13 20 -23 14 -33 -5 -8 -9 -23 -9
-34 0 -14 -8 -21 -27 -23 -19 -2 -28 1 -28 11 0 8 -9 22 -20 32 -25 22 -25 41
-2 54 26 15 47 13 72 -7z m-1572 -56 c13 -22 14 -30 5 -33 -7 -3 -13 -11 -13
-18 0 -20 -42 -26 -67 -9 -27 17 -28 25 -7 65 20 39 58 37 82 -5z m-1339 -30
c15 -17 -14 -76 -37 -76 -20 0 -45 50 -36 74 8 20 57 22 73 2z m3559 -15 c11
-7 10 -15 -5 -46 -24 -50 -44 -62 -77 -47 -28 12 -32 34 -16 76 8 22 16 26 47
26 21 0 44 -4 51 -9z m-5318 -67 c11 -12 10 -21 -8 -52 -36 -64 -102 -52 -102
19 0 16 8 32 18 38 26 16 78 13 92 -5z m4368 -31 c-13 -16 -50 -14 -56 5 -5
17 39 33 56 20 9 -8 10 -14 0 -25z m-3401 -95 c-28 -23 -59 -23 -87 0 -27 22
-18 49 24 66 29 12 32 11 58 -18 l27 -31 -22 -17z m8794 72 c29 -16 27 -86 -3
-93 -37 -10 -58 9 -58 53 0 47 21 61 61 40z m1433 -69 c20 -31 -45 -64 -72
-37 -23 23 -8 46 32 46 19 0 37 -4 40 -9z m-11080 -33 c23 -30 24 -34 9 -50
-20 -22 -66 -23 -83 -3 -11 13 -10 22 3 50 21 43 38 44 71 3z m-1134 -77 c0
-20 -17 -37 -27 -28 -7 8 7 47 18 47 5 0 9 -9 9 -19z m5760 -15 c0 -7 7 -19
15 -26 20 -17 19 -26 -5 -50 -24 -24 -53 -26 -74 -4 -20 20 -20 22 4 62 20 32
60 45 60 18z m-1053 -81 c2 -1 6 -15 9 -32 5 -25 2 -33 -15 -42 -29 -16 -74
-4 -65 18 6 14 10 34 13 64 1 6 49 0 58 -8z m5048 -71 c15 -15 15 -18 -1 -35
-29 -32 -94 -18 -94 21 0 32 67 42 95 14z m309 -30 c9 -3 16 -12 16 -20 0 -7
20 -22 44 -32 52 -24 63 -39 43 -59 -13 -14 -21 -13 -73 7 -76 28 -85 36 -78
69 11 44 16 47 48 35z m-5609 -26 c34 -15 32 -41 -6 -55 -58 -22 -106 19 -61
53 21 17 34 17 67 2z m710 -28 c22 -8 26 -15 23 -41 -4 -43 -34 -61 -54 -34
-23 31 -29 66 -13 76 17 11 13 11 44 -1z m-1325 -10 c0 -5 -9 -10 -21 -10 -11
0 -17 5 -14 10 3 6 13 10 21 10 8 0 14 -4 14 -10z m-559 -60 c22 -12 24 -37 5
-62 -18 -24 -35 -23 -63 4 -27 26 -29 43 -5 57 22 13 39 13 63 1z m2648 -270
l20 -39 -22 -16 c-29 -20 -70 -19 -91 3 -15 17 -15 22 -1 55 13 31 20 37 44
37 24 0 33 -7 50 -40z m-3858 0 c24 -14 24 -32 0 -54 -17 -16 -23 -16 -48 -4
-36 17 -42 45 -11 57 31 13 36 13 59 1z m7373 -56 c11 -4 16 -19 16 -45 0 -38
-1 -39 -34 -39 -33 0 -34 1 -33 38 1 46 16 60 51 46z m262 -12 c6 -4 15 -21
18 -38 9 -41 -12 -60 -51 -47 -24 9 -28 14 -25 44 2 19 6 37 9 42 5 9 35 9 49
-1z m-2244 -104 c9 -7 23 -25 32 -39 15 -24 15 -27 -4 -44 -11 -10 -20 -26
-20 -36 0 -25 -49 -49 -77 -38 -19 7 -21 13 -16 51 8 61 38 117 64 118 3 0 12
-6 21 -12z m-1753 -52 c9 -11 6 -18 -18 -35 -16 -12 -34 -21 -40 -21 -15 0
-34 39 -27 56 7 18 70 18 85 0z m-3793 -31 c3 -8 3 -19 0 -24 -10 -16 -36 -1
-36 20 0 22 28 26 36 4z m-243 -100 c35 -31 34 -38 -6 -53 -44 -16 -72 -15
-86 2 -10 11 -6 20 16 44 34 37 41 38 76 7z m3942 -46 c8 -24 -8 -39 -40 -39
-58 0 -58 54 -1 58 28 2 36 -2 41 -19z m-3637 2 c16 -9 12 -73 -5 -78 -16 -6
-43 26 -43 51 0 35 19 46 48 27z m4182 -6 c20 -24 4 -45 -35 -45 -23 0 -38 6
-41 15 -8 21 14 45 41 45 12 0 28 -7 35 -15z m-4886 -38 c13 -50 -9 -76 -51
-61 -33 11 -39 33 -21 75 10 23 18 29 38 27 20 -2 27 -11 34 -41z m8370 28 c4
-10 -1 -15 -14 -15 -20 0 -26 11 -13 23 10 11 20 8 27 -8z m-5729 -5 c4 -6 1
-17 -5 -25 -7 -8 -9 -15 -4 -15 13 -1 -28 -30 -42 -30 -13 0 -27 56 -18 71 7
12 61 11 69 -1z m2079 -61 c12 -10 0 -38 -19 -45 -22 -9 -62 3 -68 21 -10 23
20 46 51 39 15 -4 31 -10 36 -15z m-3320 -15 c12 -12 13 -20 6 -35 -15 -28
-34 -23 -47 10 -16 43 9 58 41 25z m4617 -5 c9 -17 8 -23 -2 -30 -37 -24 -115
5 -92 33 7 8 28 15 47 16 27 2 38 -2 47 -19z m311 -22 c19 -15 14 -63 -8 -71
-22 -9 -72 53 -59 74 9 14 47 12 67 -3z m931 -4 c3 -5 2 -23 0 -40 -7 -44 -38
-45 -47 -2 -3 17 -3 35 0 40 6 11 41 12 47 2z m2592 -111 c6 -4 12 -21 13 -39
2 -24 -3 -33 -19 -38 -30 -10 -43 8 -35 49 7 35 20 44 41 28z m-7772 -25 c25
-20 27 -26 19 -66 -14 -84 -71 -81 -85 4 -6 38 -5 51 9 66 21 24 23 24 57 -4z
m4977 -22 c15 -19 -3 -45 -31 -45 -23 0 -69 21 -69 31 0 27 80 38 100 14z
m749 -10 c20 -20 9 -28 -43 -29 -55 -1 -75 14 -50 39 20 19 69 14 93 -10z
m421 -5 c15 -28 -7 -62 -35 -54 -26 8 -55 34 -55 50 0 29 75 33 90 4z m-5366
-34 c22 -42 17 -61 -19 -70 -27 -7 -65 15 -65 36 0 15 43 68 55 68 6 0 19 -16
29 -34z m1336 -4 c0 -10 6 -24 12 -30 25 -25 -34 -42 -73 -22 -15 8 -18 17
-13 38 9 37 32 54 55 41 11 -5 19 -18 19 -27z m1420 -27 c7 -8 19 -15 27 -15
27 0 3 -19 -32 -26 -23 -4 -41 -2 -51 7 -14 11 -13 15 8 31 28 22 32 22 48 3z
m866 -17 c19 -14 -7 -78 -34 -85 -30 -7 -39 3 -47 49 -6 34 -5 39 16 47 24 8
44 5 65 -11z m-8285 -48 c25 -14 24 -50 -1 -78 -36 -38 -62 -25 -73 35 -9 45
29 67 74 43z m13771 -27 c10 -9 18 -22 18 -28 0 -19 -28 -26 -49 -13 -16 9
-17 16 -8 35 12 27 15 28 39 6z m-2581 -13 c10 -6 19 -17 19 -25 0 -16 -30
-35 -54 -35 -20 0 -31 37 -16 55 15 18 25 19 51 5z m-4004 -38 c15 -9 5 -62
-14 -69 -25 -10 -50 32 -38 65 5 13 33 16 52 4z m1478 -29 c0 -14 -5 -28 -12
-30 -17 -6 -26 16 -13 31 8 11 8 15 -2 19 -7 3 -4 6 7 6 16 1 21 -5 20 -26z
m-3895 -13 c21 -13 -1 -33 -31 -28 -32 4 -39 38 -7 38 13 0 30 -5 38 -10z
m-3640 -80 c0 -12 -28 -25 -36 -17 -9 9 6 27 22 27 8 0 14 -5 14 -10z m1302
-14 c4 -6 8 -25 8 -42 0 -24 -5 -33 -21 -37 -32 -9 -47 1 -60 41 -10 30 -9 37
5 48 18 13 56 7 68 -10z m6506 -29 c3 -12 -3 -17 -22 -17 -25 0 -35 18 -19 34
12 12 38 2 41 -17z m-2585 7 c11 -11 -5 -34 -24 -34 -21 0 -26 25 -6 33 17 8
23 8 30 1z m-733 -84 c0 -5 -7 -10 -15 -10 -8 0 -15 5 -15 10 0 6 7 10 15 10
8 0 15 -4 15 -10z m2879 -5 c9 -9 -31 -75 -45 -75 -30 0 -58 72 -31 84 13 6
67 -1 76 -9z m-738 -75 c24 -13 24 -32 0 -54 -18 -17 -21 -17 -45 -1 -28 19
-33 34 -14 53 15 15 33 15 59 2z m3679 -74 c0 -7 7 -19 15 -26 35 -29 11 -51
-71 -63 -33 -5 -47 -3 -65 12 -31 25 -15 45 46 60 24 6 47 15 50 21 9 15 25
12 25 -4z m-7134 -35 c-11 -16 -56 -14 -56 4 0 22 32 36 49 20 7 -7 10 -18 7
-24z m993 -70 c17 -11 7 -41 -13 -41 -19 0 -28 14 -20 34 7 18 13 19 33 7z
m5902 -31 c16 -9 17 -14 6 -30 -23 -38 -97 -16 -81 24 7 18 46 21 75 6z
m-6147 -106 c13 -35 7 -56 -16 -52 -18 2 -24 11 -26 36 -3 26 0 32 16 32 11 0
23 -7 26 -16z m1394 -50 c13 -4 22 -14 22 -26 0 -16 -6 -19 -42 -16 -30 2 -44
8 -46 20 -3 14 6 20 38 27 3 0 15 -2 28 -5z m717 -24 c0 -7 -6 -15 -12 -17 -8
-3 -13 4 -13 17 0 13 5 20 13 18 6 -3 12 -11 12 -18z m5943 -27 c-2 -11 -14
-19 -31 -21 -22 -3 -27 1 -27 17 0 17 6 21 31 21 24 0 30 -4 27 -17z m-5349
-72 c18 -11 7 -40 -13 -37 -22 3 -29 13 -23 31 7 17 16 19 36 6z m431 -81 c12
-7 12 -12 -4 -29 -22 -25 -49 -27 -66 -6 -28 34 28 62 70 35z m3131 -16 c11
-14 10 -18 -6 -30 -24 -18 -35 -17 -60 2 -20 15 -20 15 -1 30 26 18 50 18 67
-2z m-4221 -134 c0 -11 0 -23 1 -27 0 -5 -6 -9 -14 -11 -9 -2 -14 7 -14 28 0
18 5 30 14 30 7 0 13 -9 13 -20z m708 -132 c15 -15 -3 -38 -29 -38 -22 0 -33
16 -25 35 7 18 37 20 54 3z m490 -74 c36 -10 27 -34 -13 -34 -33 0 -46 16 -28
33 8 8 12 8 41 1z m-3892 -42 c6 -4 13 -15 17 -24 3 -10 13 -18 20 -18 8 0 20
-7 27 -15 10 -12 8 -16 -15 -25 -37 -14 -50 -13 -74 8 -19 15 -21 21 -10 50
11 33 17 37 35 24z m-1458 -24 c17 -17 15 -35 -4 -42 -22 -8 -54 2 -54 18 0
15 20 36 35 36 6 0 16 -5 23 -12z m8062 -23 c13 -16 6 -35 -15 -35 -15 0 -24
19 -17 38 6 16 17 15 32 -3z m-5965 -15 c0 -18 -62 -27 -77 -12 -18 18 3 33
40 30 25 -2 37 -8 37 -18z m2895 -19 c0 -29 -23 -43 -45 -27 -25 18 -13 46 20
46 18 0 25 -5 25 -19z m158 -183 c-3 -7 -17 -13 -33 -13 -16 0 -30 6 -32 13
-3 8 7 12 32 12 25 0 35 -4 33 -12z m1367 2 c3 -5 -1 -10 -9 -10 -9 0 -16 5
-16 10 0 6 4 10 9 10 6 0 13 -4 16 -10z m629 -189 c3 -5 0 -13 -7 -19 -15 -13
-42 1 -33 17 9 13 33 15 40 2z m-559 -161 c-3 -5 -11 -10 -16 -10 -6 0 -7 5
-4 10 3 6 11 10 16 10 6 0 7 -4 4 -10z"/>
<path d="M8397 11233 c-22 -22 12 -74 44 -66 22 6 26 42 7 61 -13 13 -41 16
-51 5z"/>
<path d="M7450 10850 c-8 -15 -6 -20 11 -25 31 -10 71 3 67 22 -5 24 -66 26
-78 3z"/>
<path d="M7354 10671 c5 -8 56 -3 56 5 0 2 -14 4 -31 4 -16 0 -28 -4 -25 -9z"/>
<path d="M7463 10653 c9 -2 23 -2 30 0 6 3 -1 5 -18 5 -16 0 -22 -2 -12 -5z"/>
<path d="M9358 10684 c-18 -6 -31 -31 -22 -45 7 -12 81 -11 105 1 22 12 26 40
5 40 -7 0 -26 2 -42 4 -16 2 -36 2 -46 0z"/>
<path d="M7700 10236 c-40 -18 -64 -20 -220 -18 -179 2 -214 -4 -185 -28 10
-8 53 -14 121 -16 85 -2 114 -7 147 -24 23 -12 51 -24 62 -26 51 -11 205 49
205 79 -2 46 -65 62 -130 33z"/>
<path d="M7048 10213 c12 -2 30 -2 40 0 9 3 -1 5 -23 4 -22 0 -30 -2 -17 -4z"/>
<path d="M7756 10001 c-3 -5 1 -11 9 -15 9 -3 15 0 15 9 0 16 -16 20 -24 6z"/>
<path d="M8983 9428 c-24 -25 -29 -37 -23 -49 7 -12 4 -19 -14 -27 -15 -6 -29
-26 -36 -49 -7 -21 -21 -45 -32 -53 -16 -13 -17 -20 -9 -43 9 -24 15 -27 53
-26 24 1 53 -4 65 -11 18 -12 31 -10 91 10 l70 24 -3 49 c-3 30 -10 54 -20 61
-9 6 -18 33 -22 63 -6 58 -14 68 -58 77 -26 6 -36 1 -62 -26z"/>
<path d="M7988 9116 c-27 -24 -27 -24 -5 -30 37 -10 72 -7 92 8 16 12 17 16 6
30 -19 23 -62 19 -93 -8z"/>
<path d="M7733 8773 c-16 -6 -17 -29 -3 -38 18 -11 50 6 50 26 0 19 -19 24
-47 12z"/>
<path d="M7353 8603 c-20 -8 -15 -23 7 -23 11 0 20 7 20 15 0 15 -6 17 -27 8z"/>
<path d="M8180 8380 c-55 -30 -83 -41 -115 -47 -37 -6 -115 -43 -115 -55 0 -4
-26 -25 -57 -45 l-56 -36 26 -19 c15 -11 27 -29 27 -42 0 -12 7 -31 15 -42 8
-10 15 -22 15 -25 0 -13 -57 -28 -130 -34 -76 -7 -120 -30 -120 -62 0 -7 -6
-13 -13 -13 -7 0 -31 -21 -52 -46 -22 -25 -47 -53 -55 -62 -19 -21 -40 -81
-40 -111 0 -32 63 -141 97 -169 48 -39 134 -92 201 -124 54 -26 71 -30 113
-25 40 5 56 13 83 42 31 32 38 35 90 35 38 0 56 4 56 13 0 6 2 49 5 93 4 71 2
85 -15 107 -12 14 -27 47 -35 72 -14 48 -11 70 20 140 7 17 16 44 20 60 4 17
18 53 31 80 13 28 23 57 21 65 -1 8 17 53 39 100 33 69 40 93 36 128 -4 38 -7
42 -31 42 -14 -1 -42 -9 -61 -20z"/>
<path d="M9570 8350 c-11 -7 -5 -10 23 -10 23 0 36 4 32 10 -8 13 -35 13 -55
0z"/>
<path d="M9370 7911 c-38 -10 -52 -47 -34 -84 20 -37 11 -72 -22 -93 -31 -21
-97 -20 -127 1 -13 9 -44 15 -80 15 -52 0 -62 -3 -86 -29 -23 -24 -29 -43 -34
-96 -7 -73 0 -89 71 -166 l33 -36 -27 -22 c-15 -11 -39 -21 -54 -21 -41 0
-113 -27 -246 -92 -25 -13 -58 -29 -72 -36 -15 -7 -38 -19 -52 -27 -48 -28
-105 -52 -155 -65 -27 -7 -61 -23 -75 -35 -14 -12 -37 -25 -52 -29 -17 -4 -28
-13 -28 -24 0 -9 -16 -30 -35 -47 -50 -43 -65 -106 -42 -178 9 -30 17 -62 17
-71 0 -10 11 -32 25 -50 14 -18 22 -36 19 -39 -4 -3 8 -24 25 -46 17 -22 37
-54 43 -72 6 -18 21 -47 32 -65 31 -48 57 -92 96 -164 19 -36 45 -75 58 -88
16 -16 22 -34 22 -66 0 -25 -4 -48 -10 -51 -18 -11 -10 -62 13 -87 21 -23 33
-25 135 -31 99 -6 119 -4 168 14 30 12 58 27 61 35 3 8 11 14 19 14 14 0 108
53 134 75 18 15 71 24 204 33 59 4 101 12 103 18 5 16 -44 27 -67 14 -10 -5
-34 -10 -53 -10 -27 0 -41 9 -75 47 -23 25 -42 50 -42 54 0 4 15 24 33 43 l32
35 103 -12 c125 -14 149 -5 172 62 15 43 69 111 89 111 5 0 12 8 15 18 3 9 19
25 36 34 18 10 30 25 30 38 0 18 -6 20 -74 20 -40 0 -88 6 -105 13 l-31 13 39
42 c43 46 50 48 116 30 38 -10 50 -9 79 5 38 18 37 15 57 166 5 46 17 94 25
106 31 47 14 248 -22 262 -7 2 -16 29 -19 58 -6 46 -11 55 -34 65 -30 12 -61
57 -61 88 0 12 -4 24 -10 27 -5 3 -10 14 -10 24 0 10 -7 32 -15 47 -10 20 -15
54 -14 105 1 44 -4 86 -11 100 -19 36 -61 68 -91 69 -14 0 -44 9 -67 20 -22
11 -42 20 -44 19 -2 -1 -14 -4 -28 -8z m124 -741 c51 -23 59 -44 21 -54 -14
-4 -34 -15 -45 -26 -28 -28 -40 -25 -88 16 l-42 35 27 25 c32 29 66 30 127 4z"/>
<path d="M5010 7845 c0 -11 41 -35 60 -35 6 0 5 10 -1 24 -12 25 -59 34 -59
11z"/>
<path d="M4879 7843 c-43 -7 -44 -63 -2 -63 21 0 64 53 50 62 -7 4 -14 7 -17
6 -3 0 -17 -3 -31 -5z"/>
<path d="M4830 7654 c0 -9 5 -14 12 -12 18 6 21 28 4 28 -9 0 -16 -7 -16 -16z"/>
<path d="M4880 7662 c0 -12 23 -32 37 -32 18 0 16 27 -3 34 -21 8 -34 8 -34
-2z"/>
<path d="M4965 7630 c3 -5 12 -10 20 -10 8 0 17 5 20 10 4 6 -5 10 -20 10 -15
0 -24 -4 -20 -10z"/>
<path d="M5250 6580 c0 -5 5 -10 10 -10 6 0 10 5 10 10 0 6 -4 10 -10 10 -5 0
-10 -4 -10 -10z"/>
<path d="M5164 6553 c-7 -5 -13 -17 -15 -28 -2 -11 -14 -24 -27 -30 -12 -5
-22 -15 -22 -22 0 -7 -9 -13 -20 -13 -15 0 -20 -7 -20 -25 0 -35 -33 -52 -114
-59 -109 -9 -113 -34 -11 -71 28 -10 62 -29 77 -43 l27 -25 -31 -36 c-47 -53
-100 -74 -173 -67 -105 10 -115 10 -130 -10 -8 -10 -15 -29 -15 -40 0 -12 -7
-27 -15 -34 -17 -14 -20 -61 -4 -77 5 -5 13 -37 16 -69 3 -32 9 -63 13 -69 4
-5 11 -24 14 -42 4 -17 18 -43 31 -57 13 -14 20 -26 15 -26 -6 0 -10 -29 -10
-65 0 -65 6 -75 28 -53 16 16 15 50 0 67 -10 11 -10 14 0 18 6 3 12 13 12 24
0 11 7 22 16 26 19 7 92 84 114 119 8 13 23 27 32 30 10 3 20 20 24 40 4 24
15 39 34 49 16 8 38 35 51 61 12 26 31 56 41 66 10 10 18 27 18 38 0 14 9 21
38 25 64 11 70 15 82 50 9 27 17 35 35 35 12 0 28 7 35 15 7 8 21 15 31 15 23
0 24 13 4 30 -17 14 -20 66 -5 75 6 3 10 17 10 30 0 18 -11 29 -44 46 -58 28
-91 59 -91 84 0 21 -31 31 -51 18z"/>
<path d="M4681 6311 c-62 -7 -74 -23 -57 -78 11 -35 41 -51 72 -39 8 3 26 -2
40 -11 18 -11 28 -13 36 -5 15 15 2 29 -32 37 -34 8 -48 24 -30 35 7 4 10 12
6 18 -11 19 14 24 38 8 22 -14 24 -14 30 7 11 41 14 41 -103 28z"/>
<path d="M8478 6233 c-20 -5 -22 -12 -9 -32 13 -21 61 -6 61 19 0 20 -14 23
-52 13z"/>
<path d="M4630 6101 c0 -21 13 -41 26 -41 20 0 17 13 -6 33 -11 9 -20 13 -20
8z"/>
<path d="M7977 5860 c7 -25 41 -46 54 -33 5 5 11 18 13 29 3 16 -3 19 -34 22
-34 2 -38 0 -33 -18z"/>
<path d="M4042 5528 c3 -7 18 -14 34 -16 28 -2 28 -2 10 13 -24 18 -49 20 -44
3z"/>
<path d="M3968 5313 c12 -2 30 -2 40 0 9 3 -1 5 -23 4 -22 0 -30 -2 -17 -4z"/>
<path d="M3742 4758 c5 -15 37 -18 41 -3 1 6 -9 12 -22 13 -16 3 -22 -1 -19
-10z"/>
<path d="M3865 4750 c-3 -5 -1 -10 4 -10 6 0 11 5 11 10 0 6 -2 10 -4 10 -3 0
-8 -4 -11 -10z"/>
<path d="M1025 4260 c4 -6 11 -8 16 -5 14 9 11 15 -7 15 -8 0 -12 -5 -9 -10z"/>
</g>
</svg>
